
<svg preserveAspectRatio="xMidYMid meet" viewBox="332.544 330.54720000000003 364.544 366.592" xmlns="http://www.w3.org/2000/svg" version="1.0" style="max-height: 500px" width="364.544" height="366.592">

<g stroke="none" fill="#fff" transform="translate(0.000000,1024.000000) scale(0.100000,-0.100000)">
<path d="M4980 6929 c-636 -70 -1151 -603 -1206 -1246 -6 -79 -8 -83 -31 -83&#10;-13 0 -33 -5 -44 -10 -18 -10 -19 -28 -19 -675 l0 -665 -165 0 c-154 0 -165&#10;-1 -175 -20 -8 -14 -8 -26 0 -40 11 -20 19 -20 1782 -18 1674 3 1771 4 1782&#10;21 8 12 8 22 0 35 -10 15 -33 18 -180 22 l-169 5 -3 523 c-2 333 1 522 7 522&#10;5 0 21 -4 36 -10 20 -8 29 -6 45 10 19 19 20 34 20 294 0 151 -3 281 -6 290&#10;-10 26 -51 18 -129 -24 l-73 -41 -11 53 c-21 95 -72 232 -123 329 -158 303&#10;-460 560 -783 668 -160 53 -391 78 -555 60z m388 -110 c402 -87 725 -343 896&#10;-710 82 -176 110 -304 110 -509 0 -158 -21 -284 -71 -424 -146 -405 -503 -717&#10;-925 -808 -80 -17 -137 -22 -253 -22 -165 0 -256 14 -407 64 -480 160 -832&#10;624 -855 1125 -9 209 35 411 131 603 198 394 564 648 1016 706 71 9 264 -5&#10;358 -25z m-1563 -1496 c19 -76 18 -82 -5 -54 -14 16 -20 38 -20 74 0 62 7 57&#10;25 -20z m99 -289 c20 -41 36 -77 36 -80 0 -6 -126 -5 -144 2 -12 5 -16 21 -16&#10;70 0 69 10 83 61 84 23 0 31 -10 63 -76z m2530 63 c14 -10 16 -25 14 -77 l-3&#10;-65 -72 -3 -72 -3 36 81 c38 84 56 97 97 67z m-2410 -309 c19 -27 21 -99 4&#10;-116 -8 -8 -50 -12 -124 -12 -93 0 -113 3 -118 16 -10 27 -6 110 6 122 8 8 48&#10;12 114 12 95 0 104 -2 118 -22z m2420 6 c21 -20 22 -107 1 -124 -19 -15 -213&#10;-14 -232 2 -18 15 -16 89 3 116 14 20 23 22 114 22 76 0 102 -4 114 -16z&#10;m-341 -326 l-1 -213 -404 -2 c-368 -2 -449 3 -330 21 71 11 231 65 327 111&#10;120 58 232 134 327 222 43 40 79 73 80 73 2 0 2 -96 1 -212z m-1796 65 c130&#10;-106 316 -197 496 -243 59 -15 110 -30 114 -33 3 -4 -173 -7 -392 -7 l-398 0&#10;7 46 c3 26 6 121 6 211 l0 165 51 -44 c28 -23 80 -67 116 -95z m-283 -39 c19&#10;-19 22 -104 4 -122 -16 -16 -220 -16 -236 0 -16 16 -16 110 0 126 19 19 212&#10;16 232 -4z m2420 0 c19 -19 22 -104 4 -122 -16 -16 -220 -16 -236 0 -18 18&#10;-15 103 4 122 12 12 38 16 114 16 76 0 102 -4 114 -16z"/>
<path d="M5027 6740 c-246 -62 -378 -340 -268 -564 153 -311 570 -310 723 1&#10;31 64 33 74 33 173 0 99 -2 110 -32 171 -65 131 -196 218 -341 225 -42 2 -94&#10;-1 -115 -6z m224 -111 c64 -28 142 -112 164 -178 32 -98 18 -206 -37 -282 -39&#10;-55 -60 -73 -123 -107 -66 -36 -185 -38 -256 -5 -113 51 -179 149 -187 274 -4&#10;66 -1 84 20 131 78 169 252 239 419 167z"/>
<path d="M4584 6609 c-143 -75 -276 -183 -369 -301 -62 -79 -155 -242 -155&#10;-272 0 -30 30 -29 98 2 118 53 227 65 337 37 101 -27 172 -72 297 -193 71 -68&#10;125 -112 134 -110 9 2 23 13 31 25 15 22 11 28 -116 158 -109 111 -137 147&#10;-166 207 -63 135 -66 260 -8 390 42 94 17 110 -83 57z"/>
<path d="M5553 6625 c-3 -9 7 -43 22 -77 58 -129 57 -255 -5 -386 -24 -52 -57&#10;-92 -165 -202 -110 -112 -133 -140 -128 -158 3 -13 16 -25 30 -28 21 -6 40 8&#10;131 98 59 58 129 119 155 137 136 92 323 104 485 30 36 -16 70 -29 77 -29 29&#10;0 24 37 -14 117 -53 111 -90 163 -180 256 -88 91 -175 157 -282 216 -80 43&#10;-116 51 -126 26z"/>
<path d="M4262 5982 c-114 -41 -213 -135 -252 -240 -89 -240 56 -492 314 -543&#10;163 -33 354 67 432 226 27 55 29 69 29 170 0 105 -2 113 -34 177 -41 82 -119&#10;159 -198 196 -78 35 -212 42 -291 14z m261 -101 c199 -97 239 -368 77 -515&#10;-65 -58 -121 -80 -210 -80 -100 0 -163 28 -229 100 -104 113 -112 276 -21 404&#10;25 35 99 88 150 107 55 20 175 12 233 -16z"/>
<path d="M5729 5982 c-109 -37 -190 -110 -243 -222 -28 -59 -31 -74 -31 -165&#10;0 -91 3 -106 31 -165 79 -166 257 -263 427 -232 94 18 176 63 240 132 185 199&#10;119 516 -133 634 -84 39 -204 46 -291 18z m235 -92 c211 -80 271 -355 111&#10;-515 -88 -87 -240 -117 -347 -68 -151 69 -225 245 -167 398 28 75 113 164 179&#10;188 65 22 158 21 224 -3z"/>
<path d="M5054 5712 c-52 -33 -74 -69 -74 -121 0 -58 16 -89 59 -118 65 -44&#10;164 -23 207 42 36 55 17 147 -38 188 -39 29 -115 33 -154 9z"/>
<path d="M4804 5320 c-171 -167 -264 -214 -419 -214 -94 0 -156 15 -247 60&#10;-87 44 -98 14 -39 -104 101 -200 254 -356 469 -478 118 -68 143 -56 98 47 -35&#10;81 -48 178 -35 258 23 142 59 204 211 352 116 114 133 140 106 167 -23 23 -44&#10;11 -144 -88z"/>
<path d="M5292 5408 c-27 -27 -9 -54 116 -182 143 -147 183 -213 202 -329 14&#10;-87 5 -152 -32 -251 -28 -72 -29 -79 -14 -94 15 -15 21 -14 82 16 145 72 269&#10;169 366 289 66 81 155 233 164 281 11 56 -6 60 -93 19 -101 -47 -169 -61 -259&#10;-53 -141 11 -223 57 -385 214 -59 56 -113 102 -121 102 -8 0 -19 -5 -26 -12z"/>
<path d="M4979 5216 c-31 -12 -69 -32 -86 -44 -52 -37 -114 -112 -141 -170&#10;-24 -51 -27 -69 -27 -167 0 -101 3 -115 29 -169 151 -303 575 -309 722 -10&#10;136 273 -60 585 -365 584 -56 0 -91 -7 -132 -24z m273 -93 c58 -26 124 -93&#10;154 -158 36 -75 34 -180 -5 -260 -35 -74 -78 -116 -155 -151 -202 -92 -436 56&#10;-436 276 0 92 25 153 90 223 41 44 69 63 110 78 70 25 175 21 242 -8z"/>
<path d="M5104 3832 c-69 -24 -128 -73 -156 -130 -32 -66 -33 -198 -1 -257 50&#10;-94 137 -144 248 -145 163 0 274 112 275 276 0 90 -32 159 -98 209 -81 63&#10;-175 79 -268 47z m184 -142 c40 -30 67 -96 58 -145 -15 -77 -102 -136 -180&#10;-121 -47 9 -101 61 -115 112 -18 66 13 138 72 168 45 23 124 17 165 -14z"/>
<path d="M3657 3834 c-4 -4 -7 -123 -7 -265 l0 -259 23 -6 c13 -3 41 -4 63 -2&#10;39 3 39 3 42 48 1 25 4 55 7 67 5 21 61 63 84 63 6 0 31 -39 54 -87 l42 -88&#10;63 -3 c44 -2 64 1 67 10 3 7 -24 78 -59 158 l-65 144 21 35 c12 20 39 63 60&#10;96 51 79 48 89 -29 93 l-61 3 -67 -110 c-103 -170 -113 -170 -117 -6 l-3 110&#10;-55 3 c-31 2 -59 0 -63 -4z"/>
<path d="M4167 3834 c-10 -10 -8 -506 2 -522 5 -9 25 -12 62 -10 l54 3 0 265&#10;0 265 -55 3 c-31 2 -59 0 -63 -4z"/>
<path d="M4385 3827 c-3 -7 -4 -127 -3 -267 l3 -255 60 0 60 0 3 128 c3 139 8&#10;149 54 100 14 -16 60 -74 102 -130 76 -102 77 -103 119 -103 24 0 48 5 54 11&#10;10 10 8 485 -2 517 -3 7 -23 12 -54 12 -29 0 -53 -5 -58 -12 -4 -7 -8 -64 -8&#10;-125 0 -67 -4 -114 -10 -115 -5 -1 -57 55 -114 125 l-104 127 -49 0 c-30 0&#10;-50 -5 -53 -13z"/>
<path d="M5526 3824 c-11 -29 -6 -91 8 -103 9 -7 41 -12 78 -11 90 2 98 1 98&#10;-11 0 -7 -38 -65 -84 -130 -108 -150 -108 -150 -104 -212 l3 -52 174 -3 c119&#10;-2 178 1 187 9 8 6 14 29 14 49 0 69 -2 70 -106 70 -76 0 -94 3 -94 15 0 8 43&#10;67 95 132 l95 118 0 73 0 72 -179 0 c-154 0 -180 -2 -185 -16z"/>
<path d="M5976 3809 c-8 -40 -8 -472 0 -493 5 -12 20 -16 60 -16 45 0 56 3 62&#10;19 4 11 6 132 4 270 l-3 251 -58 0 c-58 0 -59 -1 -65 -31z"/>
<path d="M6196 3809 c-10 -51 -7 -455 4 -483 8 -23 15 -26 58 -26 26 0 53 5&#10;60 12 7 7 12 38 12 70 0 57 0 58 41 78 23 12 44 18 47 15 4 -4 25 -43 47 -88&#10;l40 -82 44 -3 c51 -4 91 4 91 18 0 5 -27 70 -60 144 -33 75 -60 143 -60 151 0&#10;9 25 52 55 98 30 45 55 92 55 104 0 22 -4 23 -65 23 l-64 0 -55 -92 c-60 -100&#10;-101 -156 -109 -148 -3 3 -9 57 -14 120 l-8 115 -56 3 c-56 3 -56 3 -63 -29z"/>
</g>
</svg>