<svg preserveAspectRatio="xMidYMid meet" viewBox="301.824 308.42879999999997 421.888 403.456" xmlns="http://www.w3.org/2000/svg" version="1.0" style="max-height: 500px" width="421.888" height="403.456">

<g stroke="none" fill="#ffffff" transform="translate(0.000000,1024.000000) scale(0.100000,-0.100000)">
<path d="M4710 7102 c0 -14 399 -612 408 -612 9 0 397 576 409 606 4 12 -52&#10;14 -406 14 -226 0 -411 -4 -411 -8z"/>
<path d="M4367 6703 l-216 -318 426 -3 c234 -1 428 0 430 2 4 4 -414 636 -420&#10;636 -2 0 -100 -143 -220 -317z"/>
<path d="M5558 6883 c-52 -76 -150 -220 -217 -320 l-121 -183 435 0 436 0 -64&#10;93 c-36 50 -135 195 -220 320 l-155 228 -94 -138z"/>
<path d="M3674 6597 l-152 -212 226 -3 c225 -2 227 -2 244 20 10 13 78 110&#10;152 216 l135 192 -227 0 -227 -1 -151 -212z"/>
<path d="M5966 6799 c4 -6 63 -91 131 -188 69 -97 132 -188 141 -203 l16 -28&#10;234 0 233 0 -34 43 c-18 23 -89 120 -156 215 l-122 172 -225 0 c-164 0 -223&#10;-3 -218 -11z"/>
<path d="M3050 5175 l0 -1065 2070 0 2070 0 0 1065 0 1065 -2070 0 -2070 0 0&#10;-1065z m3800 -5 l0 -870 -380 0 -380 0 0 65 0 65 315 0 315 0 0 740 0 740&#10;-1600 0 -1600 0 0 -740 0 -740 315 0 315 0 0 -65 0 -65 -380 0 -380 0 0 870 0&#10;870 1730 0 1730 0 0 -870z m-1230 -50 l0 -400 -500 0 -500 0 0 400 0 400 500&#10;0 500 0 0 -400z m230 -755 l0 -65 -730 0 -730 0 0 65 0 65 730 0 730 0 0 -65z"/>
<path d="M4730 5115 l0 -295 390 0 390 0 0 295 0 295 -390 0 -390 0 0 -295z"/>
<path d="M4070 3860 c-196 -41 -325 -234 -290 -432 15 -83 52 -149 117 -208&#10;74 -68 144 -93 258 -93 112 0 182 25 254 89 137 123 162 352 56 496 -45 61&#10;-116 114 -179 133 -65 20 -160 26 -216 15z m180 -190 c65 -33 100 -95 100&#10;-177 -1 -184 -217 -270 -342 -137 -36 39 -48 74 -48 140 0 154 150 244 290&#10;174z"/>
<path d="M3128 3852 l-78 -3 0 -354 0 -355 95 0 95 0 0 83 c0 82 0 82 41 130&#10;22 26 44 47 47 47 4 0 21 -21 38 -47 17 -27 55 -85 84 -130 l54 -83 108 0 c59&#10;0 108 2 108 5 0 2 -58 90 -130 194 -71 105 -130 195 -130 201 0 6 56 76 125&#10;155 69 80 125 147 125 150 0 3 -49 5 -109 5 l-110 0 -117 -137 c-64 -76 -120&#10;-139 -125 -141 -5 -2 -9 59 -9 136 0 161 10 149 -112 144z"/>
<path d="M4743 3852 l-63 -3 0 -355 0 -355 228 3 c212 3 230 4 268 25 74 40&#10;114 107 114 193 0 46 -31 111 -65 138 l-27 22 26 30 c46 55 48 152 4 215 -12&#10;19 -45 47 -72 61 -48 26 -57 27 -200 28 -83 1 -179 0 -213 -2z m321 -178 c19&#10;-18 21 -65 4 -82 -8 -8 -48 -12 -115 -12 l-103 0 0 55 0 55 99 0 c77 0 103 -4&#10;115 -16z m24 -266 c18 -15 15 -73 -5 -89 -11 -10 -47 -14 -122 -14 l-106 0 -3&#10;49 c-5 80 -7 79 116 71 59 -4 113 -12 120 -17z"/>
<path d="M5548 3853 l-138 -4 0 -78 c0 -70 2 -79 20 -84 11 -3 82 -3 159 0 91&#10;4 140 2 145 -5 3 -5 -68 -97 -159 -204 l-164 -193 -1 -72 0 -73 290 0 290 0 0&#10;80 0 80 -167 2 -166 3 165 195 166 196 3 79 4 79 -155 1 c-85 1 -217 0 -292&#10;-2z"/>
<path d="M6160 3495 l0 -355 96 0 97 0 -4 355 -4 355 -92 0 -93 0 0 -355z"/>
<path d="M6530 3495 l0 -355 93 0 92 0 -3 78 -4 79 43 49 c23 27 45 50 49 52&#10;5 2 48 -56 96 -128 l88 -130 108 0 c85 0 108 3 102 13 -4 6 -65 96 -136 200&#10;l-130 187 118 138 c64 75 124 145 132 155 14 16 9 17 -99 16 l-114 0 -119&#10;-140 c-65 -76 -121 -139 -125 -139 -3 0 -5 63 -3 140 l3 140 -95 0 -96 0 0&#10;-355z"/>
</g>
</svg>